<?xml version="1.0" standalone="no"?> 
<!DOCTYPE svg PUBLIC "-//W3C//DTD SVG 1.1//EN" "http://www.w3.org/Graphics/SVG/1.1/DTD/svg11.dtd" >
<svg xmlns="http://www.w3.org/2000/svg">
<defs>
  <font id="ydico-ish" horiz-adv-x="320">
    <font-face font-family="ydico-ish"
      units-per-em="320" ascent="320"
      descent="0" />
    <missing-glyph horiz-adv-x="0" />
    <glyph glyph-name="ydico-ish-D01_01单位缴存明细查询_dwjcmxcx.svg"
      unicode="&#xE001;"
      horiz-adv-x="320" d=" M290 310V10H30V310H290zM243 50V270H77V50H243z M145 117H225V77H145V117z M95 97C95 85.9543050033841 103.9543050033841 77 115 77C126.0456949966159 77 135 85.9543050033841 135 97C135 108.0456949966159 126.0456949966159 117 115 117C103.9543050033841 117 95 108.0456949966159 95 97z M145 180H225V140H145V180z M95 160C95 148.9543050033842 103.9543050033841 140 115 140C126.0456949966159 140 135 148.9543050033842 135 160C135 171.0456949966159 126.0456949966159 180 115 180C103.9543050033841 180 95 171.0456949966159 95 160z M145 243H225V203H145V243z M95 223C95 211.9543050033842 103.9543050033841 203 115 203C126.0456949966159 203 135 211.9543050033842 135 223C135 234.0456949966159 126.0456949966159 243 115 243C103.9543050033841 243 95 234.0456949966159 95 223z" />
    <glyph glyph-name="ydico-ish-D01_02单位托收信息查询_dwtsxxcx.svg"
      unicode="&#xE002;"
      horiz-adv-x="320" d=" M260 200V80H60V200H260M300 240H20V40H300V240L300 240z M20 280H120V240H20V280z M180 140H240V100H180V140z" />
    <glyph glyph-name="ydico-ish-D01_03单位挂帐信息查询_dwgzxxcx.svg"
      unicode="&#xE003;"
      horiz-adv-x="320" d=" M160 270C221 270 270 221 270 160S221 50 160 50S50 99 50 160S99 270 160 270M160 310C77 310 10 243 10 160S77 10 160 10S310 77 310 160S243 310 160 310L160 310z M140 180H180V80H140V180z M180 200H140V240H180V200z" />
    <glyph glyph-name="ydico-ish-D01_04单位明细账查询_dwmxzcx.svg"
      unicode="&#xE004;"
      horiz-adv-x="320" d=" M250 200V60H70V200H250M290 240H30V20H290V240L290 240z M30 300H290V260H30V300z M145 150H225V110H145V150z M95 130C95 118.9543050033842 103.9543050033841 110 115 110C126.0456949966159 110 135 118.9543050033842 135 130C135 141.0456949966159 126.0456949966159 150 115 150C103.9543050033841 150 95 141.0456949966159 95 130z" />
    <glyph glyph-name="ydico-ish-D01_05单位基本信息查询_dwjbxxcx.svg"
      unicode="&#xE005;"
      horiz-adv-x="320" d=" M190 230V300H10V20H150H190H310V230H190zM150 60H50V260H150V230V60zM270 60H190V190H270V60z M80 195H120V75H80V195z M80 225C80 213.9543050033842 88.9543050033841 205 100 205C111.0456949966159 205 120 213.9543050033842 120 225C120 236.0456949966159 111.0456949966159 245 100 245C88.9543050033841 245 80 236.0456949966159 80 225z M210 130H250V70H210V130z M210 160C210 148.9543050033842 218.9543050033842 140 230 140C241.0456949966159 140 250 148.9543050033842 250 160C250 171.0456949966159 241.0456949966159 180 230 180C218.9543050033842 180 210 171.0456949966159 210 160z" />
    <glyph glyph-name="ydico-ish-D01_06单位结息对账单查询_dwjxdzdcxx.svg"
      unicode="&#xE006;"
      horiz-adv-x="320" d=" M260 260V60H60V260H260M300 300H20V20H300V300L300 300z M80 215H160V175H80V215z M80 145H240V105H80V145z" />
    <glyph glyph-name="ydico-ish-wdzh公积金查询.svg"
      unicode="&#xE007;"
      horiz-adv-x="320" d=" M270 20H55V145H10L160 300L310 145H270V20zM93 59H233V171L160 246L93 176L93 59z M122 174H198V135H122V174z" />
    <glyph glyph-name="ydico-ish-D02_01单位下个人基本信息查询_dwxgrjbxxcx.svg"
      unicode="&#xE008;"
      horiz-adv-x="320" d=" M310 40H10V280H310V40zM50 80H270V240H50V80z M90 190C90 173.4314575050762 103.4314575050762 160 120 160C136.5685424949238 160 150 173.4314575050762 150 190C150 206.5685424949238 136.5685424949238 220 120 220C103.4314575050762 220 90 206.5685424949238 90 190z M120 160C87 160 60 133 60 100H180C180 133 153 160 120 160z" />
    <glyph glyph-name="ydico-ish-D02_03单位下个人汇缴补缴信息查询_dwxgrhjbjxxcx.svg"
      unicode="&#xE009;"
      horiz-adv-x="320" d=" M250 260V60H130V260H250M290 300H90V20H290V300L290 300z M180 60L70 60L70 220L30 220L30 20L70 20L70 20L180 20z M140 190H240V150H140V190z M140 130H240V90H140V130z" />
    <glyph glyph-name="ydico-ish-D02_04单位下个人明细账查询_dwxgrmxzcx.svg"
      unicode="&#xE00A;"
      horiz-adv-x="320" d=" M290 310V10H30V310H290zM243 50V270H77V50H243z M145 117H225V77H145V117z M95 97C95 85.9543050033841 103.9543050033841 77 115 77C126.0456949966159 77 135 85.9543050033841 135 97C135 108.0456949966159 126.0456949966159 117 115 117C103.9543050033841 117 95 108.0456949966159 95 97z M145 180H225V140H145V180z M95 160C95 148.9543050033842 103.9543050033841 140 115 140C126.0456949966159 140 135 148.9543050033842 135 160C135 171.0456949966159 126.0456949966159 180 115 180C103.9543050033841 180 95 171.0456949966159 95 160z M145 243H225V203H145V243z M95 223C95 211.9543050033842 103.9543050033841 203 115 203C126.0456949966159 203 135 211.9543050033842 135 223C135 234.0456949966159 126.0456949966159 243 115 243C103.9543050033841 243 95 234.0456949966159 95 223z" />
    <glyph glyph-name="ydico-ish-D02_04单位缴存明细查询_dwjcmxcx.svg"
      unicode="&#xE00B;"
      horiz-adv-x="320" d=" M289 17L217 58L238 93L309 53z M227 178H310V137H227V178z M238 221L217 257L289 297L309 262z M156 230V86L91 113V147H51H50V169H51H91V203L156 230M196 290L51 229V209H10V107H51V87L196 26V290L196 290z" />
    <glyph glyph-name="ydico-ish-D02_05单位下个人结息对账单查询_dwxgrjxdzdcx.svg"
      unicode="&#xE00C;"
      horiz-adv-x="320" d=" M160 10C77 10 10 77 10 160S77 310 160 310S310 243 310 160S243 10 160 10zM160 270C99 270 50 221 50 160S99 50 160 50S270 99 270 160S221 270 160 270z M80 215H160V175H80V215z M80 145H240V105H80V145z" />
    <glyph glyph-name="ydico-ish-find-some3单位下缴存变更明细查询.svg"
      unicode="&#xE00D;"
      horiz-adv-x="320" d=" M230 310L230 270L250 270L250 50L70 50L70 270L90 270L90 310L30 310L30 10L290 10L290 310z M120 310H200V270H120V310z M90 190H230V150H90V190z M90 130H230V90H90V130z" />
    <glyph glyph-name="ydico-ish-journal1员工信息查询.svg"
      unicode="&#xE00E;"
      horiz-adv-x="320" d=" M200 183C218 196 230 217 230 240C230 279 199 310 160 310S90 279 90 240C90 216 102 196 120 183C73 166 40 122 40 70H80C80 114 116 150 160 150S240 114 240 70H280C280 122 247 166 200 183zM160 270C177 270 190 257 190 240C190 223 177 210 160 210S130 223 130 240C130 257 143 270 160 270z M110 110H210V70H110V110z M110 50H210V10H110V50z" />
    <glyph glyph-name="ydico-ish-add3个人账户设立.svg"
      unicode="&#xE00F;"
      horiz-adv-x="320" d=" M170 180L140 180L140 210L100 210L100 180L70 180L70 140L100 140L100 110L140 110L140 140L170 140z M310 40H10V280H310V40zM50 80H270V240H50V80z" />
    <glyph glyph-name="ydico-ish-D03_02个人封存_grfc.svg"
      unicode="&#xE010;"
      horiz-adv-x="320" d=" M160 310C77 310 10 243 10 160C10 77 77 10 160 10C243 10 310 77 310 160C310 243 243 310 160 310zM50 160C50 221 99 270 160 270C183 270 205 263 222 251L69 98C57 115 50 137 50 160zM160 50C137 50 115 57 98 69L251 222C263 204 270 183 270 160C270 99 221 50 160 50z" />
    <glyph glyph-name="ydico-ish-D03_03个人启封_grqf.svg"
      unicode="&#xE011;"
      horiz-adv-x="320" d=" M160 270C221 270 270 221 270 160S221 50 160 50S50 99 50 160S99 270 160 270M160 310C77 310 10 243 10 160S77 10 160 10S310 77 310 160S243 310 160 310L160 310z M139 153L111 181L82 153L111 125L139 96L167 125L238 195L209 224z" />
    <glyph glyph-name="ydico-ish-D03_04个人账户同城转移_grqf.svg"
      unicode="&#xE012;"
      horiz-adv-x="320" d=" M251 80L251 60L50 60L50 260L251 260L251 240L291 240L291 300L10 300L10 20L291 20L291 80z M253 160L211 118L239 89L282 132L310 160L282 188L239 231L211 202z M70 210H150V170H70V210z M70 150H190V110H70V150z" />
    <glyph glyph-name="ydico-ish-D03_05修改登录密码_xgdlmm.svg"
      unicode="&#xE013;"
      horiz-adv-x="320" d=" M250 160V200C250 250 210 290 160 290S70 250 70 200V160H40V20H280V160H250zM110 200C110 228 132 250 160 250S210 228 210 200V160H110V200zM240 60H80V120H240V60z" />
    <glyph glyph-name="ydico-ish-D03_05单位信息变更_dwxxbg.svg"
      unicode="&#xE014;"
      horiz-adv-x="320" d=" M239.8 60.1L60 60.1L60 259.9L149.9 259.9L149.9 229.9L189.9 229.9L189.9 299.9L20 299.9L20 20.1L279.8 20.1L279.8 90.1L239.8 90.1z M141.3 101.1L300 251.8L271.7 280.1L113 129.4z" />
    <glyph glyph-name="ydico-ish-D03_06网上业务凭证重打_wsywpzcd.svg"
      unicode="&#xE015;"
      horiz-adv-x="320" d=" M250 120L70 120L70 240L250 240L250 120M290 80L290 280L30 280L30 80L290 80L290 80z M10 80H310V40H10V80z" />
    <glyph glyph-name="ydico-ish-D03_07单位住房公积金缴存情况_dwzfgjjjcqk.svg"
      unicode="&#xE016;"
      horiz-adv-x="320" d=" M219 235L180 235L216 271L188 300L160 272L132 300L104 272L140 235L140 235L101 235L101 195L140 195L140 146L180 146L180 195L219 195z M40 120H280V80H40V120z M40 60H280V20H40V60z" />
    <glyph glyph-name="ydico-ish-D03_11缴存比例调整_jcbltz.svg"
      unicode="&#xE017;"
      horiz-adv-x="320" d=" M150 310L150 170L10 170L10 190C10 256 64 310 130 310L150 310zM110 210L110 267C82 260 60 238 53 210L110 210z M270 150C270 95 225 50 170 50C115 50 70 95 70 150H30C30 73 93 10 170 10S310 73 310 150C310 227 247 290 170 290V250C225 250 270 205 270 150z" />
    <glyph glyph-name="ydico-ish-D03_12基数调整_jstz.svg"
      unicode="&#xE018;"
      horiz-adv-x="320" d=" M40 310V190V10H180H280V310H40zM80 50V150H140V50H80zM240 50H180V190H80V270H240V50z" />
    <glyph glyph-name="ydico-ish-D03_13单位下个人信息变更_dwxgrxxbg.svg"
      unicode="&#xE019;"
      horiz-adv-x="320" d=" M198 253L240 211L138 108L93 105L96 150L198 253M198 310L57 169L50 63L156 70L297 211L198 310L198 310z M20 50H60V10H20V50z M80 50H160V10H80V50z M180 50H300V10H180V50z" />
    <glyph glyph-name="ydico-ish-modify1归集业务.svg"
      unicode="&#xE01A;"
      horiz-adv-x="320" d=" M270 180V300H50V180H10V20H310V180H270zM90 220V260H230V220V180H206V130H115V180H90V220zM270 60H50V140H74V130V90H114H205H245V130V140H270V60z M120 240H200V200H120V240z" />
    <glyph glyph-name="ydico-ish-D04_01汇缴_hj.svg"
      unicode="&#xE01B;"
      horiz-adv-x="320" d=" M274 20L20 20L20 300L274 300L274 237L235 237L235 260L59 260L59 60L235 60L235 129L274 129z M235 210L300 120L235 120z M206 172L167 172L203 208L175 237L147 209L119 237L91 209L127 172L127 172L88 172L88 132L127 132L127 83L167 83L167 132L206 132z" />
    <glyph glyph-name="ydico-ish-D04_02补缴_bj.svg"
      unicode="&#xE01C;"
      horiz-adv-x="320" d=" M274 20L20 20L20 300L274 300L274 237L235 237L235 260L59 260L59 60L235 60L235 129L274 129z M235 210L300 120L235 120z M207 180L167 180L167 220L127 220L127 180L87 180L87 140L127 140L127 100L167 100L167 140L207 140z" />
    <glyph glyph-name="ydico-ish-D04_03缴存登记撤销_jcdjcx.svg"
      unicode="&#xE01D;"
      horiz-adv-x="320" d=" M122 60L70 60L70 260L250 260L250 237L290 237L290 300L30 300L30 20L122 20z M230 160L230 184L140 120L220 120L230 120L250 120L250 60L150 60L150 20L290 20L290 40L290 60L290 120L290 140L290 160z" />
    <glyph glyph-name="ydico-ish-D04_03退缴_tj.svg"
      unicode="&#xE01E;"
      horiz-adv-x="320" d=" M274 20L20 20L20 300L274 300L274 237L235 237L235 260L59 260L59 60L235 60L235 129L274 129z M235 210L300 120L235 120z M87 180H207V140H87V180z" />
    <glyph glyph-name="ydico-ish-payment3我要缴存.svg"
      unicode="&#xE01F;"
      horiz-adv-x="320" d=" M226 172L187 172L223 208L195 237L167 209L139 237L111 209L147 172L147 172L108 172L108 132L147 132L147 83L187 83L187 132L226 132z M40 300V80V77V20H294V300H40zM255 60H79V77V80V260H255V60z" />
    <glyph glyph-name="ydico-ish-D06_00我的申报_wdsb.svg"
      unicode="&#xE020;"
      horiz-adv-x="320" d=" M40 310V10H170H218L280 72V128V310H40zM202 50H80V270H240V88L202 50z M110 240H210V200H110V240z M110 170H210V130H110V170z" />
    <glyph glyph-name="ydico-ish-D06_01申报查询_sbcx.svg"
      unicode="&#xE021;"
      horiz-adv-x="320" d=" M40 310V10H170H218L280 72V128V310H40zM202 50H80V270H240V88L202 50z M209 179C182 206 137 206 110 179C83 152 83 107 110 80C132 58 166 54 193 68L252 9L280 37L221 96C236 123 232 157 209 179zM181 109C169 97 150 97 139 109C127 121 127 140 139 151C151 163 170 163 181 151C193 140 193 120 181 109z" />
    <glyph glyph-name="ydico-ish-D07_00公共业务_ggyw.svg"
      unicode="&#xE022;"
      horiz-adv-x="320" d=" M260 260V60H60V260H260M300 300H20V20H300V300L300 300z M90 220H230V180H90V220z M90 140H230V100H90V140z" />
    <glyph glyph-name="ydico-ish-D07_01批量导入模版下载_pldrmbxz.svg"
      unicode="&#xE023;"
      horiz-adv-x="320" d=" M210 260V120H110V260H210M250 300H70V80H250V300L250 300z M270 160L270 60L50 60L50 160L10 160L10 60L10 40L10 20L310 20L310 40L310 60L310 160z M140 190H180V150H140V190z" />
    <glyph glyph-name="ydico-ish-D07_02用户手册下载_yhscxz.svg"
      unicode="&#xE024;"
      horiz-adv-x="320" d=" M60 300V240H30V200H60V180H30V140H60V120H30V80H60V20H290V300H60zM250 60H100V80H110V120H100V140H110V180H100V200H110V240H100V260H250V60z M140 210H220V170H140V210z M140 150H220V110H140V150z" />
    <glyph glyph-name="ydico-ish-G01_00我的公积金_wdgjj.svg"
      unicode="&#xE025;"
      horiz-adv-x="320" d=" M275 28H48V137H1L159 296L317 137H275.0000000000001V28zM88 68H235V163L159 240L88 168C88 168 88 68 88 68z M119 171H199V131H119V171z" />
    <glyph glyph-name="ydico-ish-G01_01个人账户基本信息_grzhjbxx.svg"
      unicode="&#xE026;"
      horiz-adv-x="320" d=" M310 40H10V280H310V40zM50 80H270V240H50V80z M90 190C90 173.4314575050762 103.4314575050762 160 120 160C136.5685424949238 160 150 173.4314575050762 150 190C150 206.5685424949238 136.5685424949238 220 120 220C103.4314575050762 220 90 206.5685424949238 90 190z M120 160C87 160 60 133 60 100H180C180 133 153 160 120 160z" />
    <glyph glyph-name="ydico-ish-G01_03个人结息对账单grjxdzd.svg"
      unicode="&#xE027;"
      horiz-adv-x="320" d=" M160 10C77 10 10 77 10 160S77 310 160 310S310 243 310 160S243 10 160 10zM160 270C99 270 50 221 50 160S99 50 160 50S270 99 270 160S221 270 160 270z M80 215H160V175H80V215z M80 145H240V105H80V145z" />
    <glyph glyph-name="ydico-ish-zcxw账户明细.svg"
      unicode="&#xE028;"
      horiz-adv-x="320" d=" M300 320V0H20V320H300zM253 40V280H67V40H253z M145 117H225V77H145V117z M95 97C95 85.9543050033841 103.9543050033841 77 115 77C126.0456949966159 77 135 85.9543050033841 135 97C135 108.0456949966159 126.0456949966159 117 115 117C103.9543050033841 117 95 108.0456949966159 95 97z M145 180H225V140H145V180z M95 160C95 148.9543050033842 103.9543050033841 140 115 140C126.0456949966159 140 135 148.9543050033842 135 160C135 171.0456949966159 126.0456949966159 180 115 180C103.9543050033841 180 95 171.0456949966159 95 160z M145 243H225V203H145V243z M95 223C95 211.9543050033842 103.9543050033841 203 115 203C126.0456949966159 203 135 211.9543050033842 135 223C135 234.0456949966159 126.0456949966159 243 115 243C103.9543050033841 243 95 234.0456949966159 95 223z" />
    <glyph glyph-name="ydico-ish-G02_01还贷提取_hdtq.svg"
      unicode="&#xE029;"
      horiz-adv-x="320" d=" M300 237L300 300L20 300L20 20L300 20L300 120L300 129L300 210L233 120L260 120L260 60L60 60L60 260L260 260L260 237z M180 83L180 132L219 132L219 172L180 172L216 208L188 237L160 209L132 237L104 209L140 172L101 172L101 132L140 132L140 83z" />
    <glyph glyph-name="ydico-ish-G02_02租房提取_zftq.svg"
      unicode="&#xE02A;"
      horiz-adv-x="320" d=" M300 180V240H200V300H20V20H160H200H300V40V80V100V170L233 80H260V60H200V200H260V180H300zM160 60H60V260H160V240V60z" />
    <glyph glyph-name="ydico-ish-G02_03购买自住住房提取_gmzzzftq.svg"
      unicode="&#xE02B;"
      horiz-adv-x="320" d=" M260 130L260 60L60 60L60 130L20 130L20 20L300 20L300 130z M160 190L93 100L140 100L140 60L180 60L180 100L227 100z M76 160L160 244L244 160L300 160L160 300L20 160z" />
    <glyph glyph-name="ydico-ish-G02_05物业费提取_wyftq.svg"
      unicode="&#xE02C;"
      horiz-adv-x="320" d=" M60 240H20C20 184 53 136 100 114V20H140V102V140V142C94 151 60 192 60 240z M300 240H260C260 192 226 151 180 142V140V102V20H220V114C267 136 300 184 300 240z M226 286C208 304 178 304 160 286C151 295 139 300 127 300S103 295 94 286C76 268 76 238 94 220L160 154L226 220C235 229 240 241 240 253S235 277 226 286z" />
    <glyph glyph-name="ydico-ish-G02_07享受低保提取_xsdbtq.svg"
      unicode="&#xE02D;"
      horiz-adv-x="320" d=" M290 120V160C290 225 242 279 180 288C180 289 180 289 180 290C180 301 171 310 160 310S140 301 140 290C140 289 140 289 140 288C78 279 30 225 30 160V120H140V60L140 60C140 32 162 10 190 10S240 32 240 60H200C200 54 196 50 190 50S180 54 180 60L180 60V120H290zM70 160C70 210 110 250 160 250S250 210 250 160H180H140H70z" />
    <glyph glyph-name="ydico-ish-G02_08销户提取_xhtq.svg"
      unicode="&#xE02E;"
      horiz-adv-x="320" d=" M310 40H10V280H310V40zM50 80H270V240H50V80z M169 181L141 209L120 188L99 209L71 181L92 160L71 139L99 111L120 132L141 111L169 139L148 160z" />
    <glyph glyph-name="ydico-ish-modify7建造翻建大修提取.svg"
      unicode="&#xE02F;"
      horiz-adv-x="320" d=" M106 10L10 106L84 180L111 279L226 310L261 275L202 216L216 202L275 261L310 226L279 111L180 84L106 10zM65 106L106 65L160 119L248 143L261 193L215 147L147 215L193 261L143 248L119 160L65 106z" />
    <glyph glyph-name="ydico-ish-wybj我的提取.svg"
      unicode="&#xE030;"
      horiz-adv-x="320" d=" M240 28H0V288H240V28zM40 75H200V241H40V75z M179 170L140 170L176 206L148 235L120 207L92 235L64 207L100 170L100 170L61 170L61 130L100 130L100 81L140 81L140 130L179 130z M280 288V178C269 178 260 169 260 158S269 138 280 138V28H320V288C320 288 280 288 280 288z" />
    <glyph glyph-name="ydico-ish-apply5公积金贷款还款明细.svg"
      unicode="&#xE031;"
      horiz-adv-x="320" d=" M260 120L260 80L60 80L60 240L260 240L260 200L300 200L300 280L20 280L20 40L300 40L300 120z M150 120L240 184L240 120z M230 160H300V120H230V160z M80 160H140V120H80V160z M80 220H200V180H80V220z" />
    <glyph glyph-name="ydico-ish-extract2合作楼盘.svg"
      unicode="&#xE032;"
      horiz-adv-x="320" d=" M140 260V60H60V260H140M180 300H20V20H180V300L180 300z M260 150V60H180V150H260M300 190H140V20H300V190L300 190z M120 240L80 240L80 200L120 200z M120 180L80 180L80 140L120 140z M120 120L80 120L80 80L120 80z M240 125L200 125L200 85L240 85z" />
    <glyph glyph-name="ydico-ish-G03_01公积金贷款试算_gjjdkss.svg"
      unicode="&#xE033;"
      horiz-adv-x="320" d=" M250 270V50H70V270H250M290 310H30V10H290V310L290 310z M90 230H230V190H90V230z M190 160H230V70H190V160z M140 160H180V120H140V160z M90 160H130V120H90V160z M140 110H180V70H140V110z M90 110H130V70H90V110z" />
    <glyph glyph-name="ydico-ish-G03_02公积金贷款申请_gjjdksq.svg"
      unicode="&#xE034;"
      horiz-adv-x="320" d=" M200 270C200 292 182 310 160 310S120 292 120 270H50V10H270V270H200zM230 50H90V230H230V50z M140 180L140 150L110 150L110 110L140 110L140 80L180 80L180 110L210 110L210 150L180 150L180 180z" />
    <glyph glyph-name="ydico-ish-G03_03提前还款_tqhk.svg"
      unicode="&#xE035;"
      horiz-adv-x="320" d=" M251 80L251 60L50 60L50 260L251 260L251 240L291 240L291 300L10 300L10 20L291 20L291 80z M189 172L149 172L186 208L157 237L129 209L101 237L73 209L109 172L109 172L70 172L70 132L109 132L109 83L149 83L149 132L189 132z M267 160L310 118L282 89L239 132L211 160L239 188L282 231L310 202z" />
    <glyph glyph-name="ydico-ish-G03_04贷款期限变更_dkqxbg.svg"
      unicode="&#xE036;"
      horiz-adv-x="320" d=" M310 30H10V250H310V30zM50 70H270V210H50V70z M80 190H120V150H80V190z M140 190H180V150H140V190z M200 190H240V150H200V190z M80 130H120V90H80V130z M140 130H180V90H140V130z M200 130H240V90H200V130z M70 290H110V250H70V290z M210 290H250V250H210V290z" />
    <glyph glyph-name="ydico-ish-G03_05还款方式变更_hkfsbg.svg"
      unicode="&#xE037;"
      horiz-adv-x="320" d=" M250 246L250 208L270 208L270 74L190 74L190 36L310 36L310 246z M70 112L50 112L50 246L130 246L130 284L10 284L10 74L70 74z M100 74L190 10L190 74z M220 246L130 310L130 246z M219 171L180 171L216 206L188 234L160 207L132 234L104 207L140 171L140 171L101 171L101 133L140 133L140 86L180 86L180 133L219 133z" />
    <glyph glyph-name="ydico-ish-G03_06还款账户变更_hkzhbg.svg"
      unicode="&#xE038;"
      horiz-adv-x="320" d=" M250 246L250 208L270 208L270 74L190 74L190 36L310 36L310 246z M70 112L50 112L50 246L130 246L130 284L10 284L10 74L70 74z M100 74L190 10L190 74z M220 246L130 310L130 246z M130 190C130 173.4314575050762 143.4314575050762 160 160 160C176.5685424949238 160 190 173.4314575050762 190 190C190 206.5685424949238 176.5685424949238 220 160 220C143.4314575050762 220 130 206.5685424949238 130 190z M160 160C127 160 100 133 100 100H220C220 133 193 160 160 160z" />
    <glyph glyph-name="ydico-ish-G03_07委托扣划签约管理_wtkhqygl.svg"
      unicode="&#xE039;"
      horiz-adv-x="320" d=" M200 270C200 292 182 310 160 310S120 292 120 270H50V10H270V270H200zM230 50H90V230H230V50z M125 168L96 140L124 111L151 82L180 110L224 151L196 180L153 139z" />
    <glyph glyph-name="ydico-ish-G03_09个人贷款进度_grdkjd.svg"
      unicode="&#xE03A;"
      horiz-adv-x="320" d=" M60 290H100V30H60V290z M140 230H180V30H140V230z M220 150H260V30H220V150z M20 70H300V30H20V70z" />
    <glyph glyph-name="ydico-ish-G03_10公积金贷款账户信息_gjjdkzhxx.svg"
      unicode="&#xE03B;"
      horiz-adv-x="320" d=" M200 270C200 292 182 310 160 310S120 292 120 270H50V10H270V270H200zM230 50H90V230H230V50z M132 217L104 189L140 152L101 152L101 112L140 112L140 63L180 63L180 112L219 112L219 152L180 152L216 188L188 217L160 189z" />
    <glyph glyph-name="ydico-ish-G03_12公积金贷款还款计划_gjjdkhkjh.svg"
      unicode="&#xE03C;"
      horiz-adv-x="320" d=" M160 10C77 10 10 77 10 160S77 310 160 310S310 243 310 160S243 10 160 10zM160 270C99 270 50 221 50 160S99 50 160 50S270 99 270 160S221 270 160 270z M261 194L226 214L196 162L144 192L109 212L89 178L89 178L59 126L94 106L124 158L176 128L211 108L231 142L231 142z" />
    <glyph glyph-name="ydico-ish-wydk我的贷款.svg"
      unicode="&#xE03D;"
      horiz-adv-x="320" d=" M300 40H20V280H300V40zM60 80H260V240H60V80z M50 200H270V160H50V200z M80 140H130V100H80V140z M150 140H200V100H150V140z" />
    <glyph glyph-name="ydico-ish-approval1我的预约.svg"
      unicode="&#xE03E;"
      horiz-adv-x="320" d=" M160 10C77 10 10 77 10 160S77 310 160 310S310 243 310 160S243 10 160 10zM160 270C99 270 50 221 50 160S99 50 160 50S270 99 270 160S221 270 160 270z M180 180L180 240L140 240L140 180L140 140L180 140L240 140L240 180z" />
    <glyph glyph-name="ydico-ish-G04_01预约申请_yysq.svg"
      unicode="&#xE03F;"
      horiz-adv-x="320" d=" M200 270C200 292 182 310 160 310S120 292 120 270H50V10H270V270H200zM230 50H90V230H230V50z M140 200L140 160L140 120L180 120L220 120L220 160L180 160L180 200z" />
    <glyph glyph-name="ydico-ish-G04_02预约查询_yycx.svg"
      unicode="&#xE040;"
      horiz-adv-x="320" d=" M200 270C200 292 182 310 160 310S120 292 120 270H50V10H270V270H200zM230 50H90V230H230V50z M110 130H210V90H110V130z M110 190H210V150H110V190z" />
    <glyph glyph-name="ydico-ish-find3公共业务.svg"
      unicode="&#xE041;"
      horiz-adv-x="320" d=" M260 260V60H60V260H260M300 300H20V20H300V300L300 300z M90 220H230V180H90V220z M90 140H230V100H90V140z" />
    <glyph glyph-name="ydico-ish-G05_01系统公告_xtgg.svg"
      unicode="&#xE042;"
      horiz-adv-x="320" d=" M190 260V60H70V260H190M230 300H30V20H230V300L230 300z M250 180V60H230V180H250M290 220H190V20H290V220L290 220z M90 240H170V200H90V240z M90 180H170V140H90V180z M90 120H140V80H90V120z" />
    <glyph glyph-name="ydico-ish-G05_02用户手册下载_yhscxz.svg"
      unicode="&#xE043;"
      horiz-adv-x="320" d=" M60 300V240H30V200H60V180H30V140H60V120H30V80H60V20H290V300H60zM250 60H100V80H110V120H100V140H110V180H100V200H110V240H100V260H250V60z M140 210H220V170H140V210z M140 150H220V110H140V150z" />
    <glyph glyph-name="ydico-ish-G06_02支付密码找回_zfmmzh.svg"
      unicode="&#xE044;"
      horiz-adv-x="320" d=" M220 207V290H20V207V165V30H300V207H220zM60 250H180V210H60V250zM260 72H60V166H220H260V72z M200 120C200 108.9543050033842 208.9543050033842 100 220 100C231.0456949966159 100 240 108.9543050033842 240 120C240 131.0456949966159 231.0456949966159 140 220 140C208.9543050033842 140 200 131.0456949966159 200 120z" />
    <glyph glyph-name="ydico-ish-G06_03支付密码变更_zfmmbg.svg"
      unicode="&#xE045;"
      horiz-adv-x="320" d=" M270 230V90H50V230H270M310 270H10V50H310V270L310 270z M200 200H240V120H200V200z M140 200H180V120H140V200z M80 200H120V120H80V200z" />
    <glyph glyph-name="ydico-ish-G06_04个人基本信息变更_grjbxxbg.svg"
      unicode="&#xE046;"
      horiz-adv-x="320" d=" M198 253L240 211L138 108L93 105L96 150L198 253M198 310L57 169L50 63L156 70L297 211L198 310L198 310z M20 50H60V10H20V50z M80 50H160V10H80V50z M180 50H300V10H180V50z" />
    <glyph glyph-name="ydico-ish-G06_05手机号码与公积金账号关联_sjhmygjjzhgl.svg"
      unicode="&#xE047;"
      horiz-adv-x="320" d=" M220 270V50H100V270H220M260 310H60V10H260V310L260 310z M120 110H200V70H120V110z" />
    <glyph glyph-name="ydico-ish-G06_06个人缴存证明打印_grjczmdy.svg"
      unicode="&#xE048;"
      horiz-adv-x="320" d=" M240 270V50H80V270H240M280 310H40V10H280V310L280 310z M110 125H210V85H110V125z M160 235L145 205L113 201L136 178L131 145L160 160L189 145L184 178L207 201L175 205z" />
    <glyph glyph-name="ydico-ish-G06_07结息对账单打印_jxdzddy.svg"
      unicode="&#xE049;"
      horiz-adv-x="320" d=" M240 270V50H80V270H240M280 310H40V10H280V310L280 310z M219 172L180 172L216 208L188 237L160 209L132 237L104 209L140 172L140 172L101 172L101 132L140 132L140 83L180 83L180 132L219 132z" />
    <glyph glyph-name="ydico-ish-G06_08网上业务凭证打印_wsywpzdy.svg"
      unicode="&#xE04A;"
      horiz-adv-x="320" d=" M250 120H70V240H250V120M290 80V280H30V80H290L290 80z M10 80H310V40H10V80z" />
    <glyph glyph-name="ydico-ish-lock3查询密码变更.svg"
      unicode="&#xE04B;"
      horiz-adv-x="320" d=" M250 160V200C250 250 210 290 160 290S70 250 70 200V160H40V20H280V160H250zM110 200C110 228 132 250 160 250S210 228 210 200V160H110V200zM240 60H80V120H240V60z" />
    <glyph glyph-name="ydico-ish-modify5其他业务.svg"
      unicode="&#xE04C;"
      horiz-adv-x="320" d=" M60 260H180V140H60V260M20 300V100H220V300H20L20 300z M140 180H260V60H140V180M100 220V20H300V220H100L100 220z" />
    <glyph glyph-name="ydico-ish-bespeak5我的申报.svg"
      unicode="&#xE04D;"
      horiz-adv-x="320" d=" M40 310V10H170H218L280 72V128V310H40zM202 50H80V270H240V88L202 50z M110 240H210V200H110V240z M110 170H210V130H110V170z" />
    <glyph glyph-name="ydico-ish-G07_01申报查询_sbcx.svg"
      unicode="&#xE04E;"
      horiz-adv-x="320" d=" M40 310V10H170H218L280 72V128V310H40zM202 50H80V270H240V88L202 50z M209 179C182 206 137 206 110 179S83 107 110 80C132 58 166 54 193 68L252 9L280 37L221 96C236 123 232 157 209 179zM181 109C169 97 150 97 139 109C127 121 127 140 139 151C151 163 170 163 181 151C193 140 193 120 181 109z" />
    <glyph glyph-name="ydico-ish-count5用户身份.svg"
      unicode="&#xE04F;"
      horiz-adv-x="320" d=" M160 270C177 270 190 257 190 240S177 210 160 210S130 223 130 240S143 270 160 270M160 310C121 310 90 279 90 240S121 170 160 170S230 201 230 240S199 310 160 310L160 310z M227 110L250 69V50H70V69L93 110H227M250 150H70L30 80V10H290V80L250 150L250 150z" />
    <glyph glyph-name="ydico-ish-print4凭证打印.svg"
      unicode="&#xE050;"
      horiz-adv-x="320" d=" M310 230H260V290H60V230H10V90H60V30H260V90H310V230zM100 250H220V230H100V250zM220 70H100V90H220V70zM270 130H50V190H270V130z M60 180H100V140H60V180z" />
    <glyph glyph-name="ydico-ish-T01_01系统菜单_xtcd.svg"
      unicode="&#xE051;"
      horiz-adv-x="320" d=" M110 270V210H50V270H110M150 310H10V170H150V310L150 310z M270 270V210H210V270H270M310 310H170V170H310V310L310 310z M110 110V50H50V110H110M150 150H10V10H150V150L150 150z M270 110V50H210V110H270M310 150H170V10H310V150L310 150z" />
    <glyph glyph-name="ydico-ish-T01_02操作记录_czjl.svg"
      unicode="&#xE052;"
      horiz-adv-x="320" d=" M190 287V310H130V287C67 273 20 217 20 150C20 73 83 10 160 10S300 73 300 150C300 217 253 273 190 287zM160 50C105 50 60 95 60 150S105 250 160 250S260 205 260 150S215 50 160 50z M139.4 171H231.4V131H139.4V171z" />
    <glyph glyph-name="ydico-ish-T01_03您可能要办理_nknybl.svg"
      unicode="&#xE053;"
      horiz-adv-x="320" d=" M160 210L170 189L180 170L201 167L224 164L207 147L192 132L196 111L200 88L179 99L160 109L141 99L120 88L124 111L128 132L113 147L96 164L119 167L140 170L149 189L160 210M160 300L114 206L10 191L85 118L67 15L160 64L253 15L235 118L310 191L206 206L160 300L160 300z" />
    <glyph glyph-name="ydico-ish-T01_04安全设置_aqsz.svg"
      unicode="&#xE054;"
      horiz-adv-x="320" d=" M160 251L236 199C223 147 197 102 160 70C124 102 97 147 84 199L160 251M160 300L40 217C53 133 98 61 160 20C222 61 267 133 280 217L160 300L160 300z M146 177L132 191L103 163L118 149L146 121L174 149L217 191L188 219z" />
    <glyph glyph-name="ydico-ish-T01_07显示数据_xssj.svg"
      unicode="&#xE055;"
      horiz-adv-x="320" d=" M160 240C100 240 48 208 20 160C48 112 100 80 160 80S272 112 300 160C272 208 220 240 160 240zM160 100C127 100 100 127 100 160S127 220 160 220S220 193 220 160S193 100 160 100z M130 160C130 143.4314575050762 143.4314575050762 130 160 130C176.5685424949238 130 190 143.4314575050762 190 160C190 176.5685424949238 176.5685424949238 190 160 190C143.4314575050762 190 130 176.5685424949238 130 160z" />
    <glyph glyph-name="ydico-ish-T01_08隐藏数据_ycsj.svg"
      unicode="&#xE056;"
      horiz-adv-x="320" d=" M293.5 176.7C270.3 200 235.2 235.2 164.2 235.2C93.2 235.2 56.7 198.5 34.8 176.6L18.5 160.3L34.7 144.1C56.6 122.1 93.2 85.4 164.2 85.4C235.2 85.4 268.8 119.2 293.4 143.8L309.9 160.3L293.5 176.7zM164.2 125.4C120.3 125.4 94.2 143.1 75.4 160.3C94.5 178 119.9 195.2 164.2 195.2C208.9 195.2 233.6 178.4 253 160.3C233.6 142.2 209 125.4 164.2 125.4z M140.8 152.8C143.1 142 152.7 133.9 164.2 133.9C175.6 133.9 185.2 141.9 187.6 152.7C211.9 153.9 232.7 157.1 239.0000000000001 162.4C222.6 176.4 201.9 189.4 164.3 189.4C127.1 189.4 105.7 176.1 89.6 162.4C95.6 157.3 116.5 154.1 140.8 152.8z" />
    <glyph glyph-name="ydico-ish-T01_09编辑数据_bjsj.svg"
      unicode="&#xE057;"
      horiz-adv-x="320" d=" M23.5 126.3L16.5 16.5L126.3 23.5L272 169.2L170.2 272.1L23.5 126.3zM108.3 62.4L59.4 59.4L62.4 108.3L170.2 216.1L216.1 170.2L108.3 62.4z M210 302.4L184.2 276.7L275.4 185.8L301.2 211.5z" />
    <glyph glyph-name="ydico-ish-T01_10正常状态_zczt.svg"
      unicode="&#xE058;"
      horiz-adv-x="320" d=" M272 260L132 117L48 203L20 174L132 60L300 231L272 260z" />
    <glyph glyph-name="ydico-ish-change2消息.svg"
      unicode="&#xE059;"
      horiz-adv-x="320" d=" M10 270V50H310V270H10zM207 230L160 190L113 230H207zM50 90V222L160 130L270 222V90H50z" />
    <glyph glyph-name="ydico-ish-T02_01首页_sy.svg"
      unicode="&#xE05A;"
      horiz-adv-x="320" d=" M270 20H55V145H10L160 300L310 145H270V20zM93 59H233V171L160 246L93 176V59z" />
    <glyph glyph-name="ydico-ish-T02_02任务_rw.svg"
      unicode="&#xE05B;"
      horiz-adv-x="320" d=" M100 230H220V190H100V230z M100 170H180V130H100V170z M40 300V60V20L80 60H280V300H40zM240 100H80V260H240V100z" />
    <glyph glyph-name="ydico-ish-T02_04客服_kf.svg"
      unicode="&#xE05C;"
      horiz-adv-x="320" d=" M291 208C272 261 220 300 160 300C100 300 48 261 29 208C18 203 10 193 10 180V140C10 123 23 110 40 110S70 123 70 140V180C70 185 69 190 66 194C80 233 117 260 160 260C203 260 240 233 254 194C251 190 250 185 250 180V140C250 135 251 130 254 126C244 98 222 77 195 67C190 69 185 70 180 70H140C123 70 110 57 110 40S123 10 140 10H180C193 10 203 18 208 29C247 43 278 74 292 113C303.0000000000001 118 311 128 311 141V181C310 193 302 203 291 208z M100 180C100 168.9543050033842 108.9543050033841 160 120 160C131.0456949966159 160 140 168.9543050033842 140 180C140 191.0456949966159 131.0456949966159 200 120 200C108.9543050033841 200 100 191.0456949966159 100 180z M180 180C180 168.9543050033842 188.9543050033842 160 200 160C211.0456949966159 160 220 168.9543050033842 220 180C220 191.0456949966159 211.0456949966159 200 200 200C188.9543050033842 200 180 191.0456949966159 180 180z" />
    <glyph glyph-name="ydico-ish-T02_05APP_app.svg"
      unicode="&#xE05D;"
      horiz-adv-x="320" d=" M60 310V10H260V310H60zM220 50H100V270H120V250H200V270H220V50z M140 90C140 78.9543050033842 148.9543050033842 70 160 70C171.0456949966159 70 180 78.9543050033842 180 90C180 101.0456949966159 171.0456949966159 110 160 110C148.9543050033842 110 140 101.0456949966159 140 90z" />
    <glyph glyph-name="ydico-ish-T02_06查询_cx.svg"
      unicode="&#xE05E;"
      horiz-adv-x="320" d=" M220 127C232 145 240 166 240 190C240 251 191 300 130 300S20 251 20 190S69 80 130 80C153 80 174 87 192 99L282 9L310 37L220 127zM130 120C91 120 60 151 60 190S91 260 130 260S200 229 200 190S169 120 130 120z" />
    <glyph glyph-name="ydico-ish-T02_07通知_tz.svg"
      unicode="&#xE05F;"
      horiz-adv-x="320" d=" M55.5 211.9L15.5 211.9L15.5 111.9L55.5 111.9L55.5 91.9L195.5 31.9L195.5 291.9L55.5 231.9z M226.3 181.9H306.3V141.9H226.3V181.9z M226.3 111.9H285V71.9H226.3V111.9z M226.3 251.9H285V211.9H226.3V251.9z" />
    <glyph glyph-name="ydico-ish-T02_08微信_wx.svg"
      unicode="&#xE060;"
      horiz-adv-x="320" d=" M249 195C241 254 191 300 130 300C64 300 10 246 10 180C10 163 14 147 20 132V70H82C97 64 113 60 130 60C135 60 140 60 145 61C161 36 189 20 220 20C235 20 249 24 261 30H300V69C306 81 310 95 310 110C310 150 284 183 249 195zM130 110C130 107 130 103 131 100C131 100 131 100 130 100C86 100 50 136 50 180S86 260 130 260C168 260 199 234 208 199C197 197 186 194 177 189C179 192 181 196 181 200C181 211 172 220 161 220C150 220 141 211 141 200S150 180 161 180C162 180 164 180 165 180C143 164 130 139 130 110zM220 60C192 60 170 82 170 110S192 160 220 160S270 138 270 110S248 60 220 60z M70 200C70 188.9543050033842 78.9543050033841 180 90 180C101.0456949966159 180 110 188.9543050033842 110 200C110 211.0456949966159 101.0456949966159 220 90 220C78.9543050033841 220 70 211.0456949966159 70 200z M190 120C190 114.4771525016921 194.4771525016921 110 200 110C205.5228474983079 110 210 114.4771525016921 210 120C210 125.5228474983079 205.5228474983079 130 200 130C194.4771525016921 130 190 125.5228474983079 190 120z M230 120C230 114.4771525016921 234.4771525016921 110 240 110C245.522847498308 110 250 114.4771525016921 250 120C250 125.5228474983079 245.522847498308 130 240 130C234.4771525016921 130 230 125.5228474983079 230 120z" />
    <glyph glyph-name="ydico-ish-T02_09帮助_bz.svg"
      unicode="&#xE061;"
      horiz-adv-x="320" d=" M160 300C83 300 20 237 20 160S83 20 160 20S300 83 300 160S237 300 160 300zM160 60C105 60 60 105 60 160C60 215 105 260 160 260S260 215 260 160C260 105 215 60 160 60z M158 113C153 113 149 111 146 108S141 101 141 96C141 91 143 87 146 84S153 79 158 79S167 81 170 84S175 91 175 96C175 101 173 105 170 108C167 112 163 113 158 113z M162 240C146 240 133 235 123 226C113 217 109 204 109 188H134C134 197 136 204 139 210C143 216 150 219 160 219C167 219 173 217 178 213C182 209 184 203 184 196C184 190 182 185 178 180L175 177C161 164 152 155 149 149C146 143 145 136 145 127V124H170V127C170 132 171 137 173 141C175 145 178 149 182 152C193 161 199 167 201 169C206 176 209 185 209 196C209 209 205 220 196 228C188 236 177 240 162 240z" />
    <glyph glyph-name="ydico-ish-T02_10微博_wb.svg"
      unicode="&#xE062;"
      horiz-adv-x="320" d=" M273 169C273 182 269 192 264 198C250.0000000000001 218 229.0000000000001 225 201 220C198 227 194 232 190 236C171 254 139 255 104 236C88 228 73 216 58 202C28 172 10 139 10 109C10 93 15 77 25 64C33 52 45 42 60 34C86 19 120 11 154 11C204 11 252.0000000000001 28 282 56.9999999999999C300.0000000000001 73.9999999999999 310.0000000000001 95 310.0000000000001 115C310.0000000000001 130 304 145 291.0000000000001 157C286 160 280 165 273 169zM255 83C232 61 194 48 154 48C126 48 99 55 79 66C69 72 61 78 56 86C51 93 48 101 48 110C48 130 62 154 86 177C98 188 111 198 123 204C134 210 145 213 153 213C156 213 161 212 164 210C167 207 167 202 167 198L165 170L192 180C223.0000000000001 191 229.0000000000001 183 232.0000000000001 178C233.0000000000001 177 235.0000000000001 173 233.0000000000001 164L228.0000000000001 147L245.0000000000001 141C253.0000000000001 138 259 134 264 130C269 125 271 120 271 115C272 104 266 93 255 83z M240 310C234 310 230 306 230 300C230 294 234 290 240 290C273 290 300 263 300 230C300 224 304 220 310 220S320 224 320 230C320 274 284 310 240 310z M229 253C248 253 263 238 263 219C263 214 267 210 272 210S281 214 281 219C280 247 257 270 229 270C224 270 220 266 220 261S224 253 229 253z" />
    <glyph glyph-name="ydico-ish-find-some1我要查询.svg"
      unicode="&#xE063;"
      horiz-adv-x="320" d=" M10 300H110V260H10V300z M239 180C212 207 167 207 140 180C113 153 113 108 140 81C162 59 196 55 223 69L282 10L310 38L251 97C266 123 262 157 239 180zM211 109C199 97 180 97 169 109C157 121 157 140 169 151C181 163 200 163 211 151C223 140 223 121 211 109z M110 100L50 100L50 220L250 220L250 180L290 180L290 260L10 260L10 60L110 60z" />
    <glyph glyph-name="ydico-ish-T03_01上箭头_sjt.svg"
      unicode="&#xE064;"
      horiz-adv-x="320" d=" M163 173L248 89L276 117L191 202L163 230L135 202L50 117L78 89z" />
    <glyph glyph-name="ydico-ish-T03_02下箭头_xjt.svg"
      unicode="&#xE065;"
      horiz-adv-x="320" d=" M167 147L82 231L54 203L139 118L167 90L195 118L280 203L252 231z" />
    <glyph glyph-name="ydico-ish-T03_02汇缴信息_hjxx.svg"
      unicode="&#xE066;"
      horiz-adv-x="320" d=" M274 20L20 20L20 300L274 300L274 237L235 237L235 260L59 260L59 60L235 60L235 129L274 129z M235 210L300 120L235 120z M206 172L167 172L203 208L175 237L147 209L119 237L91 209L127 172L127 172L88 172L88 132L127 132L127 83L167 83L167 132L206 132z" />
    <glyph glyph-name="ydico-ish-T03_03左箭头_zjt.svg"
      unicode="&#xE067;"
      horiz-adv-x="320" d=" M146 160L231 245L202 273L117 188L89 160L117 131L202 47L231 75z" />
    <glyph glyph-name="ydico-ish-T03_04右箭头_yjt.svg"
      unicode="&#xE068;"
      horiz-adv-x="320" d=" M180 163L95 78L124 50L208 135L237 163L208 191L124 276L95 248z" />
    <glyph glyph-name="ydico-ish-T03_05关闭_gb.svg"
      unicode="&#xE069;"
      horiz-adv-x="320" d=" M160 260C215 260 260 215 260 160S215 60 160 60S60 105 60 160S105 260 160 260M160 300C83 300 20 237 20 160S83 20 160 20S300 83 300 160S237 300 160 300L160 300z M224 125L188 160L224 195L195 224L160 188L125 224L96 195L132 160L96 125L125 96L160 132L195 96z M160 260C215 260 260 215 260 160S215 60 160 60S60 105 60 160S105 260 160 260M160 300C83 300 20 237 20 160S83 20 160 20S300 83 300 160S237 300 160 300L160 300z M224 125L188 160L224 195L195 224L160 188L125 224L96 195L132 160L96 125L125 96L160 132L195 96z" />
    <glyph glyph-name="ydico-ish-T03_05退出_tc.svg"
      unicode="&#xE06A;"
      horiz-adv-x="320" d=" M230 60L90 60L90 260L230 260L230 230L270 230L270 300L50 300L50 20L270 20L270 90L230 90z M200 89L242 132L270 160L242 188L200 231L171 202L214 160L171 118z" />
    <glyph glyph-name="ydico-ish-T03_06最后页_zhy.svg"
      unicode="&#xE06B;"
      horiz-adv-x="320" d=" M145 157L60 242L88 270L173 185L201 157L173 129L88 44L60 72z M231 268H271V45H231V268z" />
    <glyph glyph-name="ydico-ish-T03_06第一页_dyy.svg"
      unicode="&#xE06C;"
      horiz-adv-x="320" d=" M186 167L271 252L242 280L157 195L129 167L157 139L242 54L271 82z M60 278H100V55H60V278z" />
  </font>
</defs>
</svg>
